<?xml version="1.0" encoding="UTF-8" standalone="no"?>
<!DOCTYPE svg PUBLIC "-//W3C//DTD SVG 1.1//EN" "http://www.w3.org/Graphics/SVG/1.1/DTD/svg11.dtd">
<svg width="100%" height="100%" viewBox="0 0 800 600" version="1.1" xmlns="http://www.w3.org/2000/svg" xmlns:xlink="http://www.w3.org/1999/xlink" xml:space="preserve" xmlns:serif="http://www.serif.com/" style="fill-rule:evenodd;clip-rule:evenodd;stroke-linejoin:round;stroke-miterlimit:2;">
    <g transform="matrix(1.00245,0,0,1.00245,188.312,144.023)">
        <path d="M324.708,103.69L327.767,100.263C331.175,103.299 334.331,104.915 338.972,104.915C343.118,104.915 346.079,102.809 346.079,99.674C346.079,96.883 344.499,95.414 337.737,93.7C329.892,91.691 325.944,88.997 325.944,83.513C325.944,77.83 331.175,73.911 337.885,73.911C342.871,73.911 346.523,75.529 350.076,78.319L347.214,81.994C343.955,79.447 341.192,78.37 337.837,78.37C334.036,78.37 331.123,80.231 331.123,83.17C331.123,86.01 332.951,87.577 339.958,89.292C347.509,91.104 351.213,94.091 351.213,99.381C351.213,105.551 345.88,109.373 338.922,109.373C333.394,109.373 328.805,107.365 324.708,103.69Z" style="fill:rgb(33,32,79);fill-rule:nonzero;"/>
    </g>
    <g transform="matrix(1.00245,0,0,1.00245,188.312,144.023)">
        <path d="M304.178,91.643C304.178,84.149 298.896,78.467 291.395,78.467C283.896,78.467 278.614,84.149 278.614,91.643C278.614,99.135 283.896,104.817 291.395,104.817C298.896,104.817 304.178,99.135 304.178,91.643ZM273.432,91.643C273.432,81.945 280.934,73.911 291.395,73.911C301.858,73.911 309.36,81.945 309.36,91.643C309.36,101.339 301.858,109.373 291.395,109.373C280.934,109.373 273.432,101.339 273.432,91.643Z" style="fill:rgb(33,32,79);fill-rule:nonzero;"/>
    </g>
    <g transform="matrix(1.00245,0,0,1.00245,188.312,144.023)">
        <path d="M257.834,74.5L257.834,78.957L237.601,78.957L237.601,89.242L255.615,89.242L255.615,93.748L237.601,93.748L237.601,104.328L258.081,104.328L258.081,108.785L232.617,108.785L232.617,74.5L257.834,74.5Z" style="fill:rgb(33,32,79);fill-rule:nonzero;"/>
    </g>
    <g transform="matrix(1.00245,0,0,1.00245,188.312,144.023)">
        <path d="M188.889,74.5L208.976,99.822L208.976,74.5L213.861,74.5L213.861,108.785L209.765,108.785L189.136,82.777L189.136,108.785L184.251,108.785L184.251,74.5L188.889,74.5Z" style="fill:rgb(33,32,79);fill-rule:nonzero;"/>
    </g>
    <g transform="matrix(0.810827,0,0,0.810827,257.856,187.734)">
        <path d="M89.028,0.976L68.274,16.105L68.274,47.75L89.028,77.099L89.028,0.976Z" style="fill:rgb(33,32,79);fill-rule:nonzero;"/>
    </g>
    <g transform="matrix(0.810827,0,0,0.810827,257.856,187.734)">
        <path d="M89.028,113.792L9.242,0.976L0,7.734L0,125.7L20.753,110.571L20.753,52.152L72.65,125.7L95.352,125.7L111.731,113.792L89.028,113.792Z" style="fill:rgb(33,32,79);fill-rule:nonzero;"/>
    </g>
    <g transform="matrix(0.810827,0,0,0.810827,257.856,187.734)">
        <path d="M20.753,52.152L20.753,110.571L0,125.7L22.702,125.7L43.457,110.571L43.457,84.329L20.753,52.152Z" style="fill:rgb(0,174,239);fill-rule:nonzero;"/>
    </g>
    <g transform="matrix(0.810827,0,0,0.810827,257.856,187.734)">
        <path d="M89.028,77.099L89.028,0.976L111.731,0.976L111.731,113.792L89.028,113.792L9.242,0.976L35.189,0.976L89.028,77.099Z" style="fill:rgb(0,174,239);fill-rule:nonzero;"/>
    </g>
    <g transform="matrix(0.322865,-0.14479,0.138637,0.309144,211.068,412.542)">
        <g transform="matrix(203.479,0,0,212.51,950.435,141.929)">
            <path d="M0.316,0.042C0.31,0.041 0.303,0.039 0.295,0.036C0.287,0.033 0.28,0.03 0.274,0.027C0.252,0.013 0.231,-0.012 0.213,-0.047C0.206,-0.06 0.2,-0.074 0.195,-0.089C0.19,-0.104 0.185,-0.125 0.179,-0.152C0.175,-0.167 0.173,-0.178 0.171,-0.186C0.169,-0.195 0.167,-0.202 0.166,-0.207C0.164,-0.213 0.162,-0.219 0.16,-0.226C0.155,-0.241 0.15,-0.256 0.144,-0.27C0.138,-0.283 0.133,-0.293 0.128,-0.298L0.125,-0.302L0.104,-0.297C0.095,-0.295 0.089,-0.293 0.086,-0.292C0.083,-0.291 0.081,-0.29 0.08,-0.289C0.077,-0.286 0.073,-0.285 0.066,-0.285C0.061,-0.285 0.056,-0.286 0.052,-0.289C0.05,-0.291 0.049,-0.292 0.049,-0.294C0.049,-0.296 0.05,-0.297 0.052,-0.299C0.053,-0.299 0.054,-0.301 0.055,-0.302C0.056,-0.303 0.057,-0.305 0.058,-0.306C0.06,-0.309 0.064,-0.313 0.071,-0.317C0.077,-0.321 0.083,-0.324 0.09,-0.327C0.097,-0.329 0.105,-0.331 0.116,-0.332C0.122,-0.332 0.127,-0.333 0.131,-0.334C0.134,-0.335 0.139,-0.336 0.144,-0.338C0.195,-0.361 0.237,-0.392 0.269,-0.433C0.292,-0.464 0.312,-0.5 0.329,-0.541C0.345,-0.582 0.355,-0.62 0.357,-0.655L0.357,-0.662C0.357,-0.693 0.348,-0.713 0.332,-0.723C0.327,-0.725 0.322,-0.726 0.317,-0.726C0.308,-0.726 0.298,-0.723 0.285,-0.718C0.265,-0.711 0.243,-0.698 0.218,-0.679C0.137,-0.617 0.077,-0.536 0.039,-0.437C0.036,-0.429 0.034,-0.422 0.034,-0.415C0.033,-0.407 0.033,-0.401 0.033,-0.395C0.033,-0.385 0.033,-0.374 0.034,-0.361C0.035,-0.31 0.039,-0.258 0.044,-0.203C0.049,-0.148 0.055,-0.103 0.062,-0.067C0.063,-0.059 0.064,-0.053 0.065,-0.048C0.066,-0.044 0.067,-0.041 0.068,-0.04C0.069,-0.038 0.071,-0.037 0.072,-0.037C0.075,-0.036 0.077,-0.035 0.078,-0.033C0.08,-0.032 0.081,-0.031 0.081,-0.03C0.081,-0.028 0.079,-0.027 0.076,-0.025C0.074,-0.023 0.071,-0.021 0.068,-0.02C0.067,-0.019 0.065,-0.019 0.063,-0.019L0.053,-0.019C0.042,-0.019 0.035,-0.023 0.029,-0.029C0.018,-0.042 0.007,-0.076 -0.001,-0.131C-0.009,-0.186 -0.016,-0.257 -0.02,-0.345L-0.023,-0.409C-0.024,-0.423 -0.024,-0.439 -0.024,-0.457L-0.024,-0.475C-0.024,-0.499 -0.023,-0.522 -0.022,-0.543C-0.021,-0.563 -0.019,-0.577 -0.017,-0.584C-0.015,-0.589 -0.012,-0.593 -0.009,-0.595C-0.005,-0.597 0.001,-0.598 0.008,-0.598C0.016,-0.598 0.021,-0.597 0.025,-0.595C0.028,-0.594 0.031,-0.59 0.033,-0.586L0.037,-0.58L0.037,-0.49L0.046,-0.51C0.08,-0.575 0.125,-0.632 0.183,-0.68C0.233,-0.722 0.279,-0.743 0.321,-0.743C0.326,-0.743 0.331,-0.743 0.335,-0.742C0.374,-0.738 0.396,-0.718 0.404,-0.682C0.406,-0.674 0.407,-0.664 0.407,-0.651C0.407,-0.638 0.406,-0.626 0.404,-0.615C0.394,-0.554 0.372,-0.498 0.338,-0.445C0.301,-0.388 0.252,-0.348 0.19,-0.323L0.174,-0.317L0.181,-0.312C0.19,-0.303 0.199,-0.289 0.209,-0.268C0.216,-0.254 0.222,-0.239 0.227,-0.224C0.232,-0.209 0.238,-0.188 0.244,-0.162C0.253,-0.124 0.261,-0.096 0.266,-0.078C0.272,-0.06 0.278,-0.045 0.284,-0.033C0.289,-0.022 0.294,-0.013 0.3,-0.004C0.305,0.004 0.31,0.01 0.314,0.015C0.322,0.022 0.331,0.025 0.341,0.025C0.349,0.025 0.358,0.023 0.368,0.018C0.372,0.015 0.377,0.011 0.383,0.006C0.388,0 0.393,-0.005 0.396,-0.01C0.4,-0.015 0.403,-0.018 0.405,-0.019C0.407,-0.021 0.411,-0.021 0.415,-0.021C0.418,-0.021 0.421,-0.021 0.424,-0.02C0.426,-0.019 0.427,-0.018 0.427,-0.016C0.427,-0.015 0.426,-0.012 0.425,-0.009C0.423,-0.006 0.421,-0.002 0.419,0.002C0.417,0.005 0.414,0.009 0.412,0.011C0.4,0.025 0.384,0.035 0.365,0.04C0.359,0.041 0.353,0.042 0.346,0.042C0.34,0.042 0.335,0.042 0.332,0.042C0.326,0.042 0.321,0.042 0.316,0.042Z" style="fill:rgb(0,174,239);fill-rule:nonzero;"/>
        </g>
        <g transform="matrix(203.479,0,0,212.51,1032.4,141.929)">
            <path d="M0.033,-0.202C0.005,-0.209 -0.01,-0.238 -0.012,-0.291L-0.012,-0.301C-0.012,-0.323 -0.01,-0.347 -0.005,-0.371C0.001,-0.4 0.008,-0.425 0.019,-0.447C0.025,-0.461 0.034,-0.47 0.044,-0.474C0.055,-0.478 0.065,-0.48 0.074,-0.48C0.078,-0.48 0.083,-0.48 0.088,-0.479C0.102,-0.476 0.114,-0.47 0.125,-0.462C0.141,-0.449 0.15,-0.434 0.154,-0.417C0.156,-0.409 0.157,-0.401 0.157,-0.393C0.158,-0.385 0.158,-0.379 0.158,-0.375C0.158,-0.368 0.158,-0.362 0.157,-0.356C0.156,-0.354 0.156,-0.352 0.156,-0.351C0.156,-0.349 0.156,-0.349 0.156,-0.349L0.159,-0.349C0.173,-0.353 0.187,-0.36 0.201,-0.369C0.215,-0.378 0.226,-0.387 0.235,-0.396C0.241,-0.4 0.245,-0.404 0.25,-0.406C0.254,-0.409 0.257,-0.41 0.259,-0.41C0.26,-0.41 0.261,-0.409 0.261,-0.409C0.262,-0.408 0.262,-0.408 0.262,-0.407C0.262,-0.405 0.259,-0.401 0.254,-0.395C0.243,-0.38 0.227,-0.366 0.208,-0.354C0.189,-0.341 0.171,-0.333 0.152,-0.33C0.152,-0.33 0.151,-0.327 0.15,-0.323C0.148,-0.319 0.146,-0.314 0.144,-0.308C0.126,-0.256 0.106,-0.223 0.084,-0.208C0.074,-0.203 0.063,-0.2 0.052,-0.2C0.046,-0.2 0.04,-0.201 0.033,-0.202ZM0.134,-0.349C0.137,-0.361 0.138,-0.372 0.138,-0.382C0.138,-0.392 0.137,-0.402 0.135,-0.411C0.13,-0.43 0.118,-0.447 0.097,-0.461C0.097,-0.461 0.096,-0.459 0.094,-0.454C0.092,-0.45 0.09,-0.445 0.087,-0.439C0.085,-0.433 0.083,-0.427 0.082,-0.421C0.081,-0.417 0.08,-0.413 0.08,-0.409C0.08,-0.402 0.082,-0.394 0.085,-0.386C0.091,-0.375 0.098,-0.365 0.107,-0.357C0.116,-0.35 0.124,-0.345 0.131,-0.345C0.132,-0.345 0.132,-0.345 0.133,-0.346C0.133,-0.347 0.134,-0.348 0.134,-0.349ZM0.111,-0.287C0.113,-0.292 0.116,-0.298 0.119,-0.304C0.121,-0.31 0.123,-0.316 0.125,-0.32C0.127,-0.324 0.127,-0.327 0.127,-0.328L0.127,-0.329C0.126,-0.328 0.125,-0.328 0.123,-0.328C0.12,-0.328 0.115,-0.329 0.109,-0.33C0.1,-0.332 0.091,-0.335 0.083,-0.339C0.074,-0.342 0.068,-0.346 0.064,-0.35C0.061,-0.343 0.057,-0.332 0.055,-0.316C0.052,-0.3 0.051,-0.288 0.051,-0.279L0.051,-0.264C0.051,-0.249 0.052,-0.238 0.056,-0.232C0.067,-0.233 0.078,-0.24 0.088,-0.253C0.098,-0.266 0.106,-0.278 0.111,-0.287Z" style="fill:rgb(0,174,239);fill-rule:nonzero;"/>
        </g>
        <g transform="matrix(203.479,0,0,212.51,1080.69,141.929)">
            <path d="M0,-0.232C-0.006,-0.239 -0.012,-0.248 -0.016,-0.259C-0.021,-0.272 -0.024,-0.288 -0.024,-0.306C-0.024,-0.325 -0.021,-0.345 -0.015,-0.368C0.002,-0.424 0.025,-0.462 0.056,-0.482C0.066,-0.487 0.073,-0.491 0.08,-0.493C0.086,-0.494 0.092,-0.495 0.098,-0.495C0.101,-0.495 0.104,-0.495 0.106,-0.495C0.114,-0.494 0.121,-0.492 0.126,-0.49C0.131,-0.487 0.136,-0.483 0.14,-0.478C0.151,-0.465 0.156,-0.448 0.157,-0.426L0.157,-0.423C0.157,-0.419 0.156,-0.416 0.155,-0.413C0.154,-0.408 0.153,-0.405 0.152,-0.404C0.15,-0.402 0.149,-0.401 0.148,-0.401C0.147,-0.401 0.147,-0.401 0.146,-0.402C0.145,-0.403 0.144,-0.408 0.144,-0.415C0.144,-0.418 0.143,-0.422 0.143,-0.427C0.143,-0.431 0.142,-0.435 0.141,-0.438C0.138,-0.45 0.133,-0.46 0.126,-0.468C0.118,-0.477 0.111,-0.481 0.106,-0.481L0.105,-0.481C0.103,-0.481 0.1,-0.479 0.096,-0.476C0.092,-0.472 0.088,-0.469 0.084,-0.464C0.081,-0.46 0.077,-0.456 0.075,-0.452C0.063,-0.432 0.053,-0.407 0.045,-0.377C0.037,-0.346 0.033,-0.319 0.033,-0.296L0.033,-0.291C0.035,-0.262 0.043,-0.243 0.056,-0.233C0.059,-0.231 0.063,-0.23 0.068,-0.23C0.072,-0.23 0.077,-0.231 0.082,-0.233C0.092,-0.237 0.106,-0.246 0.123,-0.259C0.131,-0.265 0.138,-0.271 0.144,-0.277C0.149,-0.282 0.158,-0.29 0.168,-0.302C0.181,-0.316 0.192,-0.329 0.2,-0.341C0.209,-0.353 0.218,-0.367 0.229,-0.384C0.231,-0.389 0.233,-0.392 0.235,-0.394C0.236,-0.396 0.237,-0.398 0.238,-0.399C0.239,-0.4 0.24,-0.401 0.24,-0.401C0.241,-0.402 0.241,-0.402 0.242,-0.402L0.243,-0.401C0.245,-0.401 0.246,-0.4 0.246,-0.399L0.246,-0.398C0.246,-0.397 0.245,-0.394 0.243,-0.391C0.241,-0.387 0.238,-0.381 0.233,-0.373C0.215,-0.34 0.192,-0.306 0.165,-0.273C0.152,-0.258 0.136,-0.244 0.117,-0.232C0.099,-0.219 0.084,-0.212 0.073,-0.211C0.061,-0.21 0.055,-0.21 0.053,-0.21C0.034,-0.21 0.017,-0.217 0,-0.232Z" style="fill:rgb(0,174,239);fill-rule:nonzero;"/>
        </g>
        <g transform="matrix(203.479,0,0,212.51,1125.7,141.929)">
            <path d="M0.083,-0.229C0.073,-0.254 0.068,-0.281 0.067,-0.309L0.066,-0.331L0.059,-0.315C0.038,-0.271 0.025,-0.234 0.02,-0.203C0.019,-0.197 0.019,-0.192 0.018,-0.188C0.017,-0.183 0.016,-0.18 0.015,-0.178L0.013,-0.173L0.003,-0.173C-0.008,-0.173 -0.014,-0.176 -0.017,-0.181C-0.017,-0.182 -0.018,-0.185 -0.019,-0.188C-0.019,-0.192 -0.02,-0.197 -0.021,-0.202C-0.022,-0.206 -0.022,-0.212 -0.023,-0.218C-0.023,-0.225 -0.024,-0.234 -0.024,-0.247C-0.024,-0.26 -0.024,-0.278 -0.024,-0.301L-0.024,-0.341C-0.024,-0.387 -0.024,-0.428 -0.022,-0.462C-0.019,-0.507 -0.015,-0.552 -0.008,-0.595C0.011,-0.715 0.043,-0.797 0.087,-0.842C0.1,-0.855 0.111,-0.862 0.123,-0.865C0.134,-0.867 0.142,-0.868 0.146,-0.868C0.159,-0.868 0.17,-0.865 0.181,-0.858C0.202,-0.843 0.214,-0.808 0.216,-0.754L0.216,-0.744C0.216,-0.676 0.196,-0.6 0.156,-0.518C0.127,-0.458 0.098,-0.421 0.071,-0.407C0.066,-0.404 0.061,-0.402 0.055,-0.4C0.049,-0.399 0.044,-0.398 0.039,-0.398L0.028,-0.399L0.027,-0.384L0.024,-0.323C0.023,-0.31 0.023,-0.299 0.022,-0.291L0.022,-0.271C0.022,-0.271 0.022,-0.271 0.022,-0.271C0.023,-0.271 0.025,-0.275 0.028,-0.283C0.049,-0.332 0.075,-0.376 0.105,-0.417C0.136,-0.458 0.161,-0.483 0.182,-0.491C0.186,-0.493 0.19,-0.493 0.194,-0.493C0.199,-0.493 0.204,-0.492 0.208,-0.49C0.215,-0.487 0.221,-0.482 0.224,-0.474C0.226,-0.469 0.227,-0.461 0.227,-0.451C0.227,-0.441 0.226,-0.433 0.224,-0.425C0.214,-0.393 0.196,-0.37 0.169,-0.356C0.158,-0.351 0.142,-0.346 0.124,-0.342C0.12,-0.342 0.117,-0.341 0.115,-0.341C0.114,-0.34 0.113,-0.34 0.113,-0.34C0.112,-0.34 0.112,-0.339 0.112,-0.339L0.112,-0.338C0.113,-0.337 0.113,-0.334 0.114,-0.329C0.115,-0.324 0.116,-0.318 0.118,-0.312C0.119,-0.301 0.121,-0.294 0.122,-0.288C0.123,-0.282 0.124,-0.277 0.125,-0.273C0.125,-0.269 0.127,-0.264 0.128,-0.259C0.137,-0.221 0.151,-0.194 0.169,-0.177C0.177,-0.17 0.183,-0.166 0.187,-0.165C0.191,-0.164 0.194,-0.164 0.196,-0.164C0.2,-0.164 0.205,-0.165 0.21,-0.168C0.222,-0.173 0.234,-0.185 0.246,-0.203C0.274,-0.246 0.299,-0.305 0.321,-0.378C0.324,-0.389 0.327,-0.395 0.33,-0.395L0.333,-0.396C0.336,-0.396 0.337,-0.393 0.337,-0.389C0.337,-0.386 0.337,-0.383 0.336,-0.379C0.33,-0.352 0.322,-0.324 0.313,-0.294C0.303,-0.264 0.292,-0.237 0.279,-0.213C0.26,-0.179 0.242,-0.159 0.224,-0.153C0.206,-0.147 0.192,-0.145 0.183,-0.145C0.167,-0.145 0.152,-0.149 0.138,-0.157C0.114,-0.171 0.096,-0.195 0.083,-0.229ZM0.081,-0.435C0.092,-0.447 0.103,-0.462 0.114,-0.479C0.131,-0.509 0.147,-0.541 0.16,-0.575C0.173,-0.609 0.182,-0.641 0.187,-0.67C0.19,-0.688 0.191,-0.704 0.191,-0.721C0.191,-0.734 0.19,-0.747 0.188,-0.759C0.185,-0.788 0.177,-0.811 0.166,-0.83C0.164,-0.833 0.161,-0.835 0.159,-0.838C0.157,-0.841 0.155,-0.843 0.152,-0.845C0.15,-0.847 0.148,-0.848 0.147,-0.848C0.146,-0.848 0.144,-0.847 0.141,-0.843C0.138,-0.84 0.135,-0.836 0.131,-0.832C0.127,-0.828 0.124,-0.824 0.122,-0.82C0.077,-0.751 0.047,-0.624 0.031,-0.438C0.03,-0.431 0.03,-0.426 0.03,-0.421C0.029,-0.416 0.029,-0.413 0.029,-0.412C0.033,-0.41 0.036,-0.409 0.04,-0.409C0.042,-0.409 0.046,-0.409 0.049,-0.411C0.056,-0.414 0.063,-0.418 0.069,-0.423C0.075,-0.429 0.079,-0.432 0.081,-0.435ZM0.116,-0.359C0.125,-0.361 0.132,-0.364 0.139,-0.367C0.145,-0.37 0.151,-0.374 0.157,-0.379C0.183,-0.402 0.197,-0.43 0.199,-0.463C0.199,-0.476 0.197,-0.483 0.193,-0.484L0.191,-0.484C0.189,-0.484 0.187,-0.483 0.184,-0.481C0.179,-0.479 0.174,-0.476 0.169,-0.472C0.145,-0.452 0.119,-0.419 0.09,-0.373L0.087,-0.368C0.083,-0.362 0.081,-0.358 0.081,-0.357L0.081,-0.356C0.081,-0.355 0.082,-0.355 0.085,-0.355L0.091,-0.355C0.094,-0.355 0.098,-0.356 0.103,-0.356C0.108,-0.357 0.112,-0.358 0.116,-0.359Z" style="fill:rgb(0,174,239);fill-rule:nonzero;"/>
        </g>
        <g transform="matrix(203.479,0,0,212.51,1189.38,141.929)">
            <path d="M-0.071,-0.006C-0.093,-0.012 -0.106,-0.026 -0.111,-0.049C-0.112,-0.053 -0.112,-0.059 -0.112,-0.065L-0.112,-0.072C-0.112,-0.082 -0.11,-0.09 -0.108,-0.097C-0.102,-0.119 -0.09,-0.14 -0.072,-0.158C-0.063,-0.167 -0.052,-0.176 -0.039,-0.185C-0.027,-0.194 -0.01,-0.204 0.012,-0.217L0.04,-0.233L0.044,-0.236L0.044,-0.25C0.044,-0.287 0.034,-0.324 0.013,-0.361C0.005,-0.376 -0.001,-0.389 -0.004,-0.4C-0.008,-0.411 -0.009,-0.42 -0.009,-0.429C-0.009,-0.433 -0.009,-0.437 -0.009,-0.44C-0.007,-0.456 0,-0.472 0.011,-0.489C0.022,-0.505 0.035,-0.517 0.049,-0.525C0.056,-0.528 0.064,-0.53 0.073,-0.53L0.075,-0.53C0.083,-0.53 0.091,-0.528 0.096,-0.523C0.1,-0.521 0.102,-0.518 0.104,-0.514C0.105,-0.511 0.106,-0.506 0.106,-0.5C0.106,-0.482 0.096,-0.459 0.077,-0.433C0.073,-0.428 0.068,-0.421 0.061,-0.415C0.055,-0.408 0.049,-0.403 0.044,-0.399L0.039,-0.395L0.044,-0.385C0.046,-0.382 0.048,-0.378 0.051,-0.373C0.054,-0.367 0.056,-0.362 0.059,-0.357C0.074,-0.333 0.083,-0.307 0.087,-0.28L0.09,-0.266C0.12,-0.29 0.146,-0.318 0.169,-0.349C0.176,-0.359 0.181,-0.363 0.184,-0.363C0.185,-0.363 0.186,-0.363 0.186,-0.361L0.186,-0.359C0.186,-0.354 0.181,-0.344 0.172,-0.33C0.16,-0.315 0.147,-0.301 0.135,-0.289C0.122,-0.277 0.108,-0.264 0.091,-0.25L0.09,-0.228C0.088,-0.181 0.077,-0.137 0.058,-0.098C0.031,-0.046 -0,-0.015 -0.035,-0.006C-0.041,-0.005 -0.047,-0.004 -0.053,-0.004C-0.06,-0.004 -0.066,-0.005 -0.071,-0.006ZM0.063,-0.444C0.077,-0.465 0.084,-0.483 0.084,-0.496C0.084,-0.504 0.082,-0.511 0.076,-0.516C0.075,-0.517 0.074,-0.517 0.073,-0.517C0.073,-0.517 0.071,-0.517 0.07,-0.516C0.065,-0.514 0.06,-0.508 0.054,-0.5C0.048,-0.492 0.043,-0.483 0.039,-0.474C0.035,-0.465 0.032,-0.457 0.031,-0.45C0.031,-0.443 0.03,-0.437 0.03,-0.433C0.03,-0.427 0.031,-0.422 0.032,-0.417L0.033,-0.409L0.044,-0.42C0.047,-0.423 0.05,-0.427 0.054,-0.431C0.057,-0.436 0.06,-0.44 0.063,-0.444ZM-0.048,-0.022C-0.042,-0.026 -0.035,-0.032 -0.027,-0.041C-0.018,-0.051 -0.011,-0.061 -0.003,-0.071C0.013,-0.097 0.025,-0.125 0.033,-0.157C0.035,-0.165 0.037,-0.173 0.038,-0.181C0.039,-0.188 0.041,-0.2 0.043,-0.215C0.043,-0.216 0.043,-0.216 0.043,-0.217L0.044,-0.218L0.043,-0.219C0.043,-0.219 0.042,-0.219 0.042,-0.219C0.04,-0.218 0.038,-0.217 0.035,-0.216L0.013,-0.202C-0.002,-0.193 -0.014,-0.186 -0.023,-0.179C-0.032,-0.172 -0.041,-0.165 -0.048,-0.157C-0.074,-0.132 -0.086,-0.104 -0.086,-0.072L-0.086,-0.071C-0.086,-0.048 -0.079,-0.031 -0.064,-0.023C-0.06,-0.02 -0.058,-0.019 -0.056,-0.019L-0.054,-0.019C-0.053,-0.019 -0.05,-0.02 -0.048,-0.022Z" style="fill:rgb(0,174,239);fill-rule:nonzero;"/>
        </g>
    </g>
</svg>
