<svg xmlns="http://www.w3.org/2000/svg" fill-rule="evenodd" stroke-linejoin="round" stroke-miterlimit="2" clip-rule="evenodd" viewBox="0 0 800 600">
  <path fill="#21204f" fill-rule="nonzero" d="M513.8 248l3-3.5c3.5 3 6.7 4.7 11.3 4.7 4.2 0 7.1-2.1 7.1-5.3 0-2.8-1.5-4.2-8.3-6-7.9-2-11.8-4.7-11.8-10.2 0-5.7 5.2-9.6 12-9.6 5 0 8.6 1.6 12.1 4.4l-2.8 3.7c-3.3-2.5-6-3.6-9.4-3.6-3.8 0-6.8 1.9-6.8 4.8 0 2.8 1.9 4.4 8.9 6.1 7.6 1.9 11.3 4.8 11.3 10.1 0 6.2-5.4 10-12.3 10-5.6 0-10.2-2-14.3-5.6zM493.2 235.9c0-7.5-5.3-13.2-12.8-13.2-7.5 0-12.8 5.7-12.8 13.2 0 7.5 5.3 13.2 12.8 13.2 7.5 0 12.8-5.7 12.8-13.2zm-30.8 0c0-9.7 7.5-17.8 18-17.8s18 8 18 17.8c0 9.7-7.5 17.8-18 17.8s-18-8-18-17.8zM446.8 218.7v4.5h-20.3v10.3h18v4.5h-18v10.6H447v4.5h-25.5v-34.4h25.3zM377.7 218.7l20.1 25.4v-25.4h4.9v34.4h-4.1L377.9 227v26H373v-34.3h4.7zM330 188.5l-16.8 12.3v25.7l16.8 23.7v-61.7zM330 280l-64.7-91.5-7.4 5.5v95.7l16.8-12.3V230l42 59.7h18.5l13.3-9.7H330z"/>
  <path fill="#00aeef" fill-rule="nonzero" d="M274.7 230v47.4l-16.8 12.3h18.4l16.8-12.3V256l-18.4-26zM330 250.2v-61.7h18.5V280H330l-64.7-91.5h21l43.7 61.7zM559.6 312.3l-1.6.2h-1.6c-1.9-.3-4-1.3-6.2-3l-2.4-2.3c-.8-.8-1.7-2-3-3.7l-1.4-2-1-1.2-1-1-2.3-2.5a7.9 7.9 0 00-1.9-1.3l-.3-.2-1.2 1-1 .8-.4.4c0 .2-.3.4-.8.6-.3.2-.6.3-1 .2-.2 0-.3-.1-.3-.3v-.4l.1-.3.1-.3c0-.3.2-.6.5-1.1l1-1.2 1.5-1.1 1-.6.7-.6c2.7-3 4.5-6.3 5.4-10 .6-2.7.9-5.6.8-8.8-.2-3.2-.6-6-1.5-8.3l-.2-.5c-1-2-2.1-3-3.5-3.3-.4 0-.7.1-1 .3-.6.2-1.2.7-2 1.4-1 1-2 2.6-3.2 4.6a39.2 39.2 0 00-4.3 22.7l.5 1.4 1.1 2.2a160.9 160.9 0 0011.7 20c.1.2.3.2.3.2h.6l.2.1c.1.2 0 .3-.1.5l-.4.6-.3.2-.7.3c-.7.3-1.3.3-1.8 0-1.1-.5-2.9-2.4-5-5.8-2.2-3.3-4.7-7.8-7.6-13.5l-2-4-1.5-3.2-.6-1.2a102 102 0 01-2.7-7.4c0-.3 0-.7.2-1l1-.6c.5-.3.9-.3 1.2-.3.2 0 .6.1.8.3l.4.3 2.7 6v-1.7c.3-5.2 1.6-10.3 4-15.2 2-4.2 4.4-7 7.2-8.2l1-.3c2.6-.9 4.7-.2 6.3 1.9.3.5.7 1 1 2l1 2.4a32 32 0 01.6 13.1c-.7 4.8-2.8 9-6.1 12.4l-.9.9h.6a24.4 24.4 0 015.6 4.4l3 3.7 3.9 4.8a25.1 25.1 0 004.4 3.9l1.5.8c.7.3 1.4.2 2-.1.6-.2 1.1-.6 1.6-1.3l.6-1.2c.2-.5.4-1 .4-1.4.1-.5.3-.8.4-.9 0-.2.3-.3.6-.4l.6-.2c.1 0 .2 0 .3.2v1.4l-.2.8a6.6 6.6 0 01-2.2 3.3l-1.2.7-1 .4-1 .5z"/>
  <path fill="#00aeef" fill-rule="nonzero" d="M560.3 292.7c-2 .4-3.9-1.1-5.6-4.5l-.3-.7a25 25 0 01-2.3-10.5c0-1 .4-2 .9-2.5.6-.6 1.2-1 1.8-1.3l1-.3c1-.2 2-.2 2.9 0 1.4.4 2.4 1.1 3.2 2.1l1 1.5.5 1.1.5 1.3v.4l.1.1h.2a14.5 14.5 0 003.6-5.3l.7-1.2.5-.5h.2c.2.2 0 .6 0 1.1-.4 1.3-1 2.7-1.9 4a9.8 9.8 0 01-3 3.3l.1.5v1.2c.4 4 0 6.7-1 8.3-.4.6-1 1.1-1.8 1.5l-1.3.4zm2.3-12.6a9.7 9.7 0 00-1.8-4.1 6.2 6.2 0 00-4-2.2v1.7c.1.5.1 1 .3 1.4 0 .3 0 .5.2.8.2.5.5 1 1 1.4.7.5 1.5 1 2.3 1.2.8.2 1.5.3 2 .1v-.1-.2zm.3 4.7v-1.3-1.3l-.1-.6-.3.2-1 .2c-.6.2-1.3.2-2 .2l-1.5-.1c0 .5 0 1.3.4 2.5.2 1.1.5 2 .8 2.5l.4 1c.5 1 .9 1.7 1.3 2 .7-.4 1.2-1.2 1.5-2.4.3-1.1.4-2.1.5-2.9z"/>
  <path fill="#00aeef" fill-rule="nonzero" d="M572.8 284.7c-.6-.3-1.2-.7-1.8-1.3a9.5 9.5 0 01-2-2.9c-.5-1.2-.9-2.6-1.2-4.3-.5-4.2-.1-7.3 1.3-9.6l1.3-1.4a8 8 0 011.1-.7l.5-.2a6 6 0 011.5-.3c.4 0 .9.2 1.3.4a6 6 0 012.6 3l.1.1.2.7v.7l-.1.3h-.2l-.5-.8-.4-.7-.5-.7a5.1 5.1 0 00-1.8-1.5c-.8-.4-1.4-.4-1.7-.3h-.1l-.5.6-.4 1.2-.2 1a23.8 23.8 0 001.8 11.5l.2.4c1 1.8 2 2.8 3.2 3h.9l.8-.7c.5-.5 1.2-1.5 2-2.9l.8-1.8.8-2.3 1-3.5.6-3.7v-.9l.1-.4.1-.2h.5v.6l-.1 1.5c-.2 2.7-.7 5.6-1.5 8.5-.5 1.4-1 2.8-2 4.2a7.2 7.2 0 01-2.3 2.6l-1.2.7c-1.3.5-2.6.6-4.2.1z"/>
  <path fill="#00aeef" fill-rule="nonzero" d="M592.9 276a17 17 0 01-3.4-4.8l-.7-1.5v1.3c0 3.5.1 6.3.7 8.5l.3 1 .1.8v.4l-.6.3c-.7.3-1.2.3-1.6 0l-.3-.4-.5-.8-.6-1-1-1.9-1.6-3.5-1.1-2.7a102.6 102.6 0 01-6.4-17.2c-2.3-8.4-2.7-14.7-1.1-19 .5-1.2 1-2 1.7-2.5l1.4-.9c.9-.4 1.7-.5 2.6-.4 1.8.4 3.6 2.3 5.4 5.8l.3.7c2 4.5 2.9 10 2.7 16.6-.2 4.8-1 8-2.3 9.8l-.9 1-1 .5-.7.3.4 1 1.6 4.1.8 2.2.6 1.3v-1c0-3.8.3-7.5 1.1-11 .8-3.7 1.7-6 2.9-7.2l.7-.5 1-.2c.6 0 1.1.2 1.5.6l1 1.4.5 1.8a8 8 0 01-1.6 6.2l-2.5 2.2-.6.3-.1.2v.1l.4.6.8 1c.3.6.7 1 1 1.4l.6 1c0 .2.4.4.6.7 1.7 2.3 3.4 3.6 5 4.2l1.6.3.6-.2c.3-.1.6-.4.8-.7.7-.7 1.1-1.8 1.4-3.4a50 50 0 00-.3-13.7l.1-1.3.2-.2c.2 0 .4 0 .5.3l.2.7 1 6.3c.2 2.3.3 4.4.1 6.3-.2 2.8-.8 4.7-1.8 5.6-1 .9-1.9 1.4-2.5 1.7-1 .5-2.1.7-3.3.5-2-.2-3.8-1.2-5.7-3zm-6.2-13.5c.4-1.1.6-2.5.9-3.9a51 51 0 00-.9-14.7 21.6 21.6 0 00-2.5-5.9c-1-1.8-2.3-3-3.6-4l-.6-.3-.7-.3h-.4c-.1 0-.2.1-.3.5l-.3 1c-.2.4-.2.7-.2 1-1 6 .8 15.1 5.2 27.8l.5 1.2.2.6.8-.1.5-.4 1-1.4.4-1.1zm4.5 4l1.3-1.3.8-1.3c1-2.3 1.2-4.5.3-6.8-.4-.8-.7-1.2-1-1.2l-.1.1-.4.4-.7 1c-1 2-1.7 5-2.3 8.9v.4l-.1.9h.3l.4-.2.8-.4.7-.6z"/>
  <path fill="#00aeef" fill-rule="nonzero" d="M610 286c-1.7.2-3-.4-4-1.7l-.5-1-.2-.5c-.3-.7-.4-1.3-.5-1.8-.3-1.6 0-3.3.6-5 .3-1 .8-1.8 1.3-2.8l2.4-3.6 1.4-1.9.2-.3-.4-1a16 16 0 00-5.3-6.3c-1-.7-1.8-1.4-2.3-2-.6-.7-1-1.2-1.2-1.8 0-.3-.2-.5-.3-.7a8.5 8.5 0 01-.1-3.8c.2-1.4.7-2.6 1.4-3.5.4-.4.8-.8 1.4-1l.2-.1c.5-.3 1-.4 1.6-.2.3 0 .5.2.7.4.2.1.4.4.6.8.5 1.2.5 3 0 5.3 0 .4-.2 1-.5 1.6l-.6 1.6-.2.4.6.5.8.6 1 .8c1.7 1.2 3 2.6 4.1 4.3l.6.8a32 32 0 002.8-7.8c.1-.9.4-1.3.5-1.4l.2.1.1.1v2.4l-1.3 3.7-1.7 3.9.5 1.5c1.3 3.1 1.9 6.3 1.8 9.5-.3 4.2-1.4 7.1-3.4 8.7a6.5 6.5 0 01-2.4 1zm-4.2-32.8c.3-1.8.2-3.2-.1-4-.3-.6-.6-1-1.2-1.1h-.2l-.1.1c-.3.3-.5.9-.6 1.6a9.7 9.7 0 000 4c.1.4.2.8.4 1 .1.5.4.8.6 1l.3.6.4-1c0-.4.2-.7.3-1.1l.2-1.1zm5.2 31l.8-1.9.7-2.7a21.6 21.6 0 00-.6-8.4l-.7-2.4v-.2h-.1l-.4.4-1 1.6-1.7 2.5c-.4.8-.8 1.5-1 2.2-1 2.4-1 4.6 0 6.7.7 1.6 1.7 2.5 2.9 2.6h.7l.4-.4z"/>
</svg>
